<?xml version="1.0" encoding="UTF-8" standalone="no"?>
<svg
   xmlns:dc="http://purl.org/dc/elements/1.1/"
   xmlns:cc="http://creativecommons.org/ns#"
   xmlns:rdf="http://www.w3.org/1999/02/22-rdf-syntax-ns#"
   xmlns:svg="http://www.w3.org/2000/svg"
   xmlns="http://www.w3.org/2000/svg"
   xmlns:sodipodi="http://sodipodi.sourceforge.net/DTD/sodipodi-0.dtd"
   xmlns:inkscape="http://www.inkscape.org/namespaces/inkscape"
   id="Capa_1"
   data-name="Capa 1"
   viewBox="0 0 200.33 200"
   version="1.1"
   sodipodi:docname="icon.svg"
   inkscape:version="1.0.1 (1.0.1+r73)"
   inkscape:export-filename="/home/REINACB/jaime.arroyo/Escritorio/icon.png"
   inkscape:export-xdpi="95.841858"
   inkscape:export-ydpi="95.841858">
  <metadata
     id="metadata24">
    <rdf:RDF>
      <cc:Work
         rdf:about="">
        <dc:format>image/svg+xml</dc:format>
        <dc:type
           rdf:resource="http://purl.org/dc/dcmitype/StillImage" />
        <dc:title>icon</dc:title>
      </cc:Work>
    </rdf:RDF>
  </metadata>
  <sodipodi:namedview
     pagecolor="#ffffff"
     bordercolor="#666666"
     borderopacity="1"
     objecttolerance="10"
     gridtolerance="10"
     guidetolerance="10"
     inkscape:pageopacity="0"
     inkscape:pageshadow="2"
     inkscape:window-width="1848"
     inkscape:window-height="1016"
     id="namedview22"
     showgrid="false"
     showguides="true"
     inkscape:guide-bbox="true"
     inkscape:snap-text-baseline="true"
     inkscape:zoom="2.36"
     inkscape:cx="214.46952"
     inkscape:cy="122.86727"
     inkscape:window-x="1992"
     inkscape:window-y="27"
     inkscape:window-maximized="1"
     inkscape:current-layer="layer4"
     inkscape:document-rotation="0">
    <sodipodi:guide
       position="51.271186,126.37712"
       orientation="-0.70710678,0.70710678"
       id="guide40"
       inkscape:locked="false"
       inkscape:label=""
       inkscape:color="rgb(0,0,255)" />
    <sodipodi:guide
       position="118.65012,168.08767"
       orientation="-0.70710678,0.70710678"
       id="guide42"
       inkscape:locked="false"
       inkscape:label=""
       inkscape:color="rgb(0,0,255)" />
    <sodipodi:guide
       position="138.02966,143.00847"
       orientation="-0.70710678,0.70710678"
       id="guide46"
       inkscape:locked="false"
       inkscape:label=""
       inkscape:color="rgb(0,0,255)" />
    <sodipodi:guide
       position="137.92373,118.22034"
       orientation="-0.70710678,0.70710678"
       id="guide48"
       inkscape:locked="false"
       inkscape:label=""
       inkscape:color="rgb(0,0,255)" />
    <sodipodi:guide
       position="156.99152,93.008474"
       orientation="-0.70710678,0.70710678"
       id="guide50"
       inkscape:locked="false"
       inkscape:label=""
       inkscape:color="rgb(0,0,255)" />
    <sodipodi:guide
       position="139.19491,46.822034"
       orientation="-0.70710678,0.70710678"
       id="guide52"
       inkscape:locked="false"
       inkscape:label=""
       inkscape:color="rgb(0,0,255)" />
  </sodipodi:namedview>
  <defs
     id="defs4">
    <style
       id="style2">.cls-1{fill:none;}.cls-2{fill:#3b588f;}.cls-3{fill:#070308;opacity:0.4;}.cls-4{fill:#fff;}</style>
  </defs>
  <title
     id="title6">icon</title>
  <rect
     id="_Sector_"
     data-name="&lt;Sector&gt;"
     class="cls-1"
     width="200"
     height="200" />
  <rect
     class="cls-2"
     x="0.33000001"
     width="200"
     height="200"
     id="rect9"
     ry="9.5071955"
     y="0"
     style="fill:#d40000;fill-opacity:1"
     rx="8.9955473" />
  <g
     inkscape:groupmode="layer"
     id="layer1"
     inkscape:label="Layer 1"
     style="display:inline">
    <path
       style="fill:#000000;fill-opacity:0.490826;stroke:none;stroke-width:1px;stroke-linecap:butt;stroke-linejoin:miter;stroke-opacity:1"
       d="m 0.049671,83.284331 0.26814214,41.291959 -0.0736993,70.20079 c 0.61125585,1.22897 0.0713539,1.30678 1.83376756,3.6869 1.072577,1.37049 4.2927789,1.58367 4.2780498,1.59104 l 127.7494088,0.31174 40.11322,-34.4134 -2.25413,-17.68905 -24.5097,2.96034 0.22711,-12.78168 1.76901,-98.111999 L 115.9642,37.423483 86.621943,72.659745 C 88.349947,64.714496 104.08849,21.147416 104.08849,21.147416 L 50.570781,37.302119 Z"
       id="path56-3"
       inkscape:connector-curvature="0"
       sodipodi:nodetypes="cccccccccccccccc" />
  </g>
  <g
     inkscape:groupmode="layer"
     id="layer4"
     inkscape:label="Layer 2">
    <path
       fill="currentColor"
       d="M 171.96443,148.26435 H 153.29768 V 51.697132 c 0,-7.868548 -5.02368,-14.273649 -11.20004,-14.273649 H 115.9642 v 18.473479 h 22.40009 V 166.73783 h 33.60014 c 2.06267,0 3.73334,-2.06672 3.73334,-4.61837 v -9.23674 c 0,-2.55165 -1.67067,-4.61837 -3.73334,-4.61837 z M 99.220138,19.241539 54.419962,33.598898 c -3.325016,1.065113 -5.656024,4.892588 -5.656024,9.285807 V 148.26435 H 30.0972 c -2.062677,0 -3.73335,2.06672 -3.73335,4.61837 v 9.23674 c 0,2.55165 1.670673,4.61837 3.73335,4.61837 h 78.40031 V 28.527354 c 0,-6.229028 -4.56402,-10.798327 -9.277372,-9.285815 z M 87.964093,102.08066 c -3.091678,0 -5.600023,-4.136332 -5.600023,-9.236741 0,-5.100412 2.508345,-9.236739 5.600023,-9.236739 3.09168,0 5.600023,4.136327 5.600023,9.236739 0,5.100409 -2.508343,9.236741 -5.600023,9.236741 z"
       id="path2"
       style="stroke-width:0.259521;fill:#ffffff" />
  </g>
</svg>
