<?xml version="1.0" encoding="UTF-8" standalone="no"?>
<svg
   xmlns:dc="http://purl.org/dc/elements/1.1/"
   xmlns:cc="http://creativecommons.org/ns#"
   xmlns:rdf="http://www.w3.org/1999/02/22-rdf-syntax-ns#"
   xmlns:svg="http://www.w3.org/2000/svg"
   xmlns="http://www.w3.org/2000/svg"
   xmlns:sodipodi="http://sodipodi.sourceforge.net/DTD/sodipodi-0.dtd"
   xmlns:inkscape="http://www.inkscape.org/namespaces/inkscape"
   id="Capa_1"
   data-name="Capa 1"
   viewBox="0 0 200.33 200"
   version="1.1"
   sodipodi:docname="icon.svg"
   inkscape:version="0.92.4 (unknown)"
   inkscape:export-filename="/home/REINACB/jaime.arroyo/icon.png"
   inkscape:export-xdpi="95.841858"
   inkscape:export-ydpi="95.841858">
  <metadata
     id="metadata24">
    <rdf:RDF>
      <cc:Work
         rdf:about="">
        <dc:format>image/svg+xml</dc:format>
        <dc:type
           rdf:resource="http://purl.org/dc/dcmitype/StillImage" />
        <dc:title>icon</dc:title>
      </cc:Work>
    </rdf:RDF>
  </metadata>
  <sodipodi:namedview
     pagecolor="#ffffff"
     bordercolor="#666666"
     borderopacity="1"
     objecttolerance="10"
     gridtolerance="10"
     guidetolerance="10"
     inkscape:pageopacity="0"
     inkscape:pageshadow="2"
     inkscape:window-width="1853"
     inkscape:window-height="1025"
     id="namedview22"
     showgrid="false"
     showguides="true"
     inkscape:guide-bbox="true"
     inkscape:snap-text-baseline="true"
     inkscape:zoom="3.337544"
     inkscape:cx="-15.298257"
     inkscape:cy="88.965657"
     inkscape:window-x="1987"
     inkscape:window-y="27"
     inkscape:window-maximized="1"
     inkscape:current-layer="layer1">
    <sodipodi:guide
       position="51.271186,126.37712"
       orientation="-0.70710678,0.70710678"
       id="guide40"
       inkscape:locked="false"
       inkscape:label=""
       inkscape:color="rgb(0,0,255)" />
    <sodipodi:guide
       position="118.65012,168.08767"
       orientation="-0.70710678,0.70710678"
       id="guide42"
       inkscape:locked="false"
       inkscape:label=""
       inkscape:color="rgb(0,0,255)" />
    <sodipodi:guide
       position="138.02966,143.00847"
       orientation="-0.70710678,0.70710678"
       id="guide46"
       inkscape:locked="false"
       inkscape:label=""
       inkscape:color="rgb(0,0,255)" />
    <sodipodi:guide
       position="137.92373,118.22034"
       orientation="-0.70710678,0.70710678"
       id="guide48"
       inkscape:locked="false"
       inkscape:label=""
       inkscape:color="rgb(0,0,255)" />
    <sodipodi:guide
       position="156.99152,93.008474"
       orientation="-0.70710678,0.70710678"
       id="guide50"
       inkscape:locked="false"
       inkscape:label=""
       inkscape:color="rgb(0,0,255)" />
    <sodipodi:guide
       position="139.19491,46.822034"
       orientation="-0.70710678,0.70710678"
       id="guide52"
       inkscape:locked="false"
       inkscape:label=""
       inkscape:color="rgb(0,0,255)" />
  </sodipodi:namedview>
  <defs
     id="defs4">
    <style
       id="style2">.cls-1{fill:none;}.cls-2{fill:#3b588f;}.cls-3{fill:#070308;opacity:0.4;}.cls-4{fill:#fff;}</style>
  </defs>
  <title
     id="title6">icon</title>
  <rect
     id="_Sector_"
     data-name="&lt;Sector&gt;"
     class="cls-1"
     width="200"
     height="200" />
  <rect
     class="cls-2"
     x="0.33000001"
     width="200"
     height="200"
     id="rect9"
     ry="5.6928086"
     y="0"
     style="fill:#006400;fill-opacity:1" />
  <g
     inkscape:groupmode="layer"
     id="layer1"
     inkscape:label="Layer 1"
     style="display:inline">
    <path
       style="fill:#000000;fill-opacity:0.4908257;stroke:none;stroke-width:1px;stroke-linecap:butt;stroke-linejoin:miter;stroke-opacity:1"
       d="M 51.271202,73.622896 0.31781314,124.57629 0.24411382,194.77708 c 0.61125585,1.22897 0.0713539,1.30678 1.83376758,3.6869 1.072577,1.37049 4.2927789,1.58367 4.2780498,1.59104 l 85.9722268,-0.0103 46.866752,-46.86675 -14.84505,-13.54478 32.64166,-32.64166 -19.06779,-25.211874 -15.56416,15.56415 -18.18371,-6.49848 33.8538,-33.8538 -19.37954,-25.079203 -54.381298,54.381303 z"
       id="path56-3"
       inkscape:connector-curvature="0"
       sodipodi:nodetypes="cccccccccccccccc" />
  </g>
  <g
     inkscape:groupmode="layer"
     id="layer4"
     inkscape:label="Layer 2">
    <path
       inkscape:connector-curvature="0"
       d="m 66.536712,68.514381 c 13.722128,0 24.84993,12.078175 24.84993,26.972245 0,14.894074 -11.127802,26.972244 -24.84993,26.972244 -13.727099,0 -24.849926,-12.07817 -24.849926,-26.972244 0,-14.89407 11.122827,-26.972245 24.849926,-26.972245 z M 141.08649,46.936586 c 0,-8.938602 -6.67966,-16.183347 -14.90996,-16.183347 -8.23526,0 -14.90995,7.244745 -14.90995,16.183347 0,1.683068 0.30316,3.269036 0.73555,4.79027 L 91.083472,68.757132 c 2.3508,2.540785 4.35867,5.442999 5.968952,8.625724 L 117.91145,60.40113 c 2.37068,1.710041 5.20854,2.718803 8.26508,2.718803 8.2303,0 14.90996,-7.244745 14.90996,-16.183347 z M 112.00213,139.2464 c -0.43239,1.52123 -0.73555,3.1072 -0.73555,4.79027 0,8.9386 6.67469,16.18335 14.90995,16.18335 8.2303,0 14.90996,-7.24475 14.90996,-16.18335 0,-8.9386 -6.67966,-16.18335 -14.90996,-16.18335 -3.05654,0 -5.8944,1.00877 -8.26011,2.71881 L 97.057394,113.5904 c -1.610282,3.18273 -3.623122,6.08494 -5.968952,8.62572 z m 34.05434,-27.24197 c 8.2303,0 14.90996,-7.24474 14.90996,-16.183344 0,-8.93861 -6.67966,-16.183351 -14.90996,-16.183351 -6.36655,0 -11.76395,4.353321 -13.90105,10.454441 h -31.22641 c 0.23359,1.76938 0.3976,3.56034 0.3976,5.39445 0,1.83411 -0.16401,3.625074 -0.3976,5.394454 h 31.03258 c 1.96315,6.44637 7.49474,11.12335 14.09488,11.12335 z"
       id="path2"
       style="fill:#ffffff;stroke-width:5.17786932" />
  </g>
</svg>
